<svg xmlns="http://www.w3.org/2000/svg" viewBox="0 0 800 500" fill="none">
  <defs><linearGradient id="g" x1="0" y1="0" x2="800" y2="500" gradientUnits="userSpaceOnUse"><stop offset="0%" stop-color="#38BDF8" stop-opacity="0.3"/><stop offset="100%" stop-color="#050816"/></linearGradient></defs>
  <rect width="800" height="500" fill="url(#g)"/>
  <text x="80" y="80" font-family="Inter, sans-serif" font-size="20" font-weight="700" fill="#fff">OpsBoard</text>
  <text x="80" y="105" font-family="Inter, sans-serif" font-size="12" fill="#94A3B8">IT Operations · Last 30 days</text>
  <!-- KPI cards -->
  <rect x="80" y="140" width="180" height="80" rx="10" fill="rgba(255,255,255,0.04)"/>
  <text x="100" y="170" font-family="Inter, sans-serif" font-size="11" fill="#94A3B8">Availability</text>
  <text x="100" y="200" font-family="Inter, sans-serif" font-size="28" font-weight="700" fill="#10B981">99.97%</text>
  <rect x="280" y="140" width="180" height="80" rx="10" fill="rgba(255,255,255,0.04)"/>
  <text x="300" y="170" font-family="Inter, sans-serif" font-size="11" fill="#94A3B8">MTTR</text>
  <text x="300" y="200" font-family="Inter, sans-serif" font-size="28" font-weight="700" fill="#38BDF8">28m</text>
  <rect x="480" y="140" width="180" height="80" rx="10" fill="rgba(255,255,255,0.04)"/>
  <text x="500" y="170" font-family="Inter, sans-serif" font-size="11" fill="#94A3B8">Change failure rate</text>
  <text x="500" y="200" font-family="Inter, sans-serif" font-size="28" font-weight="700" fill="#8B5CF6">5%</text>
  <!-- Chart -->
  <rect x="80" y="250" width="580" height="200" rx="10" fill="rgba(255,255,255,0.03)"/>
  <polyline points="100,400 160,380 220,370 280,330 340,350 400,310 460,330 520,290 580,310 640,280" stroke="#38BDF8" stroke-width="2" fill="none"/>
  <polyline points="100,420 160,410 220,400 280,400 340,390 400,380 460,375 520,370 580,365 640,355" stroke="#8B5CF6" stroke-width="2" fill="none" stroke-dasharray="4 4"/>
</svg>
