<svg xmlns="http://www.w3.org/2000/svg" viewBox="0 0 800 500" fill="none">
  <defs>
    <linearGradient id="bg" x1="0" y1="0" x2="800" y2="500" gradientUnits="userSpaceOnUse">
      <stop offset="0%" stop-color="#8B5CF6" stop-opacity="0.3"/>
      <stop offset="100%" stop-color="#050816"/>
    </linearGradient>
  </defs>
  <rect width="800" height="500" fill="url(#bg)"/>
  <rect x="80" y="80" width="640" height="340" rx="16" fill="rgba(255,255,255,0.04)" stroke="rgba(255,255,255,0.1)"/>
  <rect x="80" y="80" width="640" height="40" rx="16" fill="rgba(255,255,255,0.06)"/>
  <circle cx="105" cy="100" r="5" fill="#EF4444"/>
  <circle cx="125" cy="100" r="5" fill="#F59E0B"/>
  <circle cx="145" cy="100" r="5" fill="#10B981"/>
  <text x="200" y="105" font-family="JetBrains Mono, monospace" font-size="11" fill="#94A3B8">smartdesk.ai/dashboard</text>
  <text x="120" y="170" font-family="Inter, sans-serif" font-size="24" font-weight="700" fill="#fff">Live Ticket Queue</text>
  <text x="120" y="200" font-family="Inter, sans-serif" font-size="13" fill="#94A3B8">42 tickets auto-resolved today · 0 escalated</text>
  <rect x="120" y="240" width="560" height="48" rx="8" fill="rgba(56,189,248,0.1)" stroke="rgba(56,189,248,0.3)"/>
  <circle cx="145" cy="264" r="6" fill="#10B981"/>
  <text x="170" y="270" font-family="Inter, sans-serif" font-size="13" fill="#fff">VPN access request — resolved in 38s</text>
  <rect x="120" y="298" width="560" height="48" rx="8" fill="rgba(139,92,246,0.1)" stroke="rgba(139,92,246,0.3)"/>
  <circle cx="145" cy="322" r="6" fill="#8B5CF6"/>
  <text x="170" y="328" font-family="Inter, sans-serif" font-size="13" fill="#fff">Password reset — auto-resolved by SmartDesk AI</text>
  <rect x="120" y="356" width="560" height="48" rx="8" fill="rgba(255,255,255,0.04)" stroke="rgba(255,255,255,0.08)"/>
  <circle cx="145" cy="380" r="6" fill="#F59E0B"/>
  <text x="170" y="386" font-family="Inter, sans-serif" font-size="13" fill="#fff">Pending review — confidence 0.62</text>
</svg>
